<svg width="512" height="512" viewBox="0 0 512 512" fill="none" xmlns="http://www.w3.org/2000/svg">
<rect width="512" height="512" fill="#1D0A34"/>
<path d="M491.096 42.6052C490.653 42.2211 490.075 42.0003 489.487 42.0003C488.831 41.9907 488.205 42.2499 487.742 42.7013L362.038 161.22L354.529 145.721C354.114 144.857 353.237 144.309 352.273 144.319C352.138 144.309 352.003 144.309 351.868 144.319L315.982 150.119L312.454 109.768C312.367 108.779 311.702 107.934 310.767 107.607C310.507 107.53 310.237 107.492 309.967 107.482C309.263 107.482 308.579 107.771 308.097 108.279L283.681 134.361C283.344 134.726 283.122 135.177 283.055 135.667L279.401 157.398L235.447 146.845C235.244 146.797 235.042 146.768 234.84 146.768C234.02 146.777 233.249 147.171 232.777 147.843L201.363 193.467L143.788 213.662C143.364 213.806 142.988 214.065 142.709 214.411L80.2276 287.969L44.9001 302.085C44.447 302.258 44.0615 302.565 43.7916 302.969L21.5733 333.948C21.2263 334.418 21.0625 334.994 21.0914 335.58L24.0988 379.216L21.0143 409.686C20.9082 410.684 21.3998 411.645 22.277 412.144L127.055 470.702C127.44 470.904 127.864 471 128.298 471L218.694 469.444C219.388 469.435 220.043 469.147 220.506 468.647L263.959 421.824C264.278 421.468 264.499 421.036 264.586 420.566L278.813 345.778L299.335 333.294L303.952 330.779L338.2 352.98C338.393 353.105 338.605 353.201 338.827 353.259L367.879 362.401L382.405 381.347C382.858 381.904 383.514 382.26 384.217 382.327L413.366 384.766C413.655 384.766 413.935 384.718 414.195 384.612L440.115 375.442C440.645 375.24 441.088 374.875 441.387 374.405L450.4 360.615C450.805 360.029 450.93 359.29 450.728 358.608L439.218 315.721C439.083 315.26 438.823 314.838 438.467 314.521L388.391 268.552L372.911 223.677L491.578 45.899C492.292 44.8331 492.08 43.4215 491.096 42.6052ZM428.307 123.942L430.399 109.595L450.573 90.6101L428.307 123.942ZM361.941 214.007L346.683 204.817L357.941 183.816L361.941 214.007ZM355.888 221.315L334.759 227.048L342.268 213.105L355.888 221.315ZM355.435 168.864L338.74 200.016L317.717 187.302L349.767 157.005L355.435 168.864ZM336.745 156.38L316.878 175.077L316.56 159.645L336.745 156.38ZM287.074 166.896C287.17 166.684 287.238 166.473 287.277 166.243L291.778 139.383L304.637 125.67L307.287 155.795L307.866 183.576L299.509 191.441L283.141 185.285L287.074 166.896ZM279.633 193.716L300.713 201.447C300.983 201.543 301.282 201.591 301.571 201.6C302.217 201.61 302.844 201.36 303.316 200.919L310.603 194.004L334.306 208.294L322.373 230.457L298.641 238.552L204.168 238.024L279.633 193.716ZM324.57 248.635L312.743 243.719L322.402 240.425L324.57 248.635ZM165.38 316.681L178.219 336.704L177.149 338.163C177.034 338.326 176.928 338.509 176.85 338.691L166.961 363.208L76.5068 365.522L136.086 308.903L136.27 308.721L178.026 260.159L165.042 314.751C164.888 315.414 165.004 316.115 165.38 316.681ZM174.604 314.444L190.567 247.416L296.549 248.021L312.435 279.672L238.348 282.668C237.828 282.697 237.317 282.889 236.912 283.225L182.113 326.006L174.604 314.444ZM277.686 166.751L274.938 179.715L253.299 160.913L277.686 166.751ZM208.274 199.805L236.594 158.733L271.16 188.809L195.917 232.08L208.274 199.805ZM196.264 205.345L184.591 235.921L155.664 219.567L196.264 205.345ZM150.873 227.144L179.742 243.872L140.761 289.198L150.873 227.144ZM140.058 232.138L130.949 292.713L91.4957 289.265L140.058 232.138ZM87.8136 298.388L129.339 302.431L75.2923 353.758L87.8136 298.388ZM50.1149 310.075L78.1841 298.858L65.8074 354.277L32.4848 334.668L50.1149 310.075ZM64.1109 364.408L57.8551 370.39L32.9668 373.934L30.9522 344.616L64.1109 364.408ZM32.9186 383.479L46.4327 381.539L31.6366 396.165L32.9186 383.479ZM127.604 460.811L33.5741 407.39L66.4821 374.913L163.163 372.666L127.604 460.811ZM215.176 460.629L153.321 461.608L243.958 429.948L215.176 460.629ZM138.641 457.393L184.003 345.749L200.746 371.85C200.881 372.061 201.035 372.253 201.228 372.426L253.299 416.734L138.641 457.393ZM258.301 417.694L258.253 417.646H258.33L258.301 417.694ZM304.222 320.206C303.798 320.206 303.384 320.311 303.017 320.503L271.95 337.462C271.276 337.817 270.803 338.451 270.668 339.2L257.704 407.41L208.052 365.733L186.692 332.978L240.276 291.58L316.849 288.487L330.547 315.731L304.955 320.331C304.714 320.263 304.453 320.225 304.203 320.235M408.923 374.817L388.247 373.185L378.01 359.952L404.132 347.017L411.641 350.436L408.923 374.817ZM412.682 340.554L411.12 339.805L412.884 338.605L412.682 340.554ZM439.893 359.434L435.103 367.27L418.456 373.022L421.222 347.977L421.801 342.321L439.893 359.434ZM437.242 344.059L423.68 331.191L432.307 325.209L437.242 344.059ZM427.536 317.133L407.265 331.143L393.751 286.125L427.536 317.133ZM399.871 338.634L370.424 353.259L342.345 344.443L316.705 327.84L392.526 314.175L399.871 338.634ZM389.779 305.024L340.051 314.002L309.186 252.505L328.137 260.38C328.426 260.62 328.763 260.802 329.12 260.908L380.757 275.12L389.779 305.024ZM377.2 264.355L335.27 252.774L331.26 237.784L364.901 228.671L377.2 264.355ZM370.771 210.195L365.701 171.908L409.241 152.568L370.771 210.195ZM417.193 139.383L383.331 154.028L419.824 119.63L417.193 139.383Z" fill="white"/>
</svg>
