<?xml version="1.0" standalone="no"?>
<!DOCTYPE svg PUBLIC "-//W3C//DTD SVG 20010904//EN"
 "http://www.w3.org/TR/2001/REC-SVG-20010904/DTD/svg10.dtd">
<svg version="1.0" xmlns="http://www.w3.org/2000/svg"
 width="700.000000pt" height="700.000000pt" viewBox="0 0 700.000000 700.000000"
 preserveAspectRatio="xMidYMid meet">
<metadata>
Created by potrace 1.14, written by Peter Selinger 2001-2017
</metadata>
<g transform="translate(0.000000,700.000000) scale(0.100000,-0.100000)"
fill="#000000" stroke="none">
<path d="M0 3500 l0 -3500 3500 0 3500 0 0 3500 0 3500 -3500 0 -3500 0 0
-3500z m6725 2902 c4 -11 -254 -405 -811 -1237 l-816 -1222 107 -309 107 -309
284 -260 c156 -143 311 -285 345 -315 l61 -55 79 -295 c43 -162 79 -302 79
-311 0 -23 -127 -216 -148 -224 -9 -3 -93 -33 -186 -66 l-170 -60 -190 16
c-105 8 -201 18 -212 20 -13 3 -62 58 -123 138 l-101 133 -201 63 -201 62
-231 151 c-128 83 -237 151 -243 151 -24 1 -336 -198 -343 -218 -4 -11 -50
-244 -101 -517 l-94 -498 -300 -322 c-164 -178 -304 -326 -310 -329 -6 -4
-292 -12 -635 -18 l-624 -11 -729 407 c-719 401 -728 407 -728 437 0 17 9 116
20 220 l20 189 -20 281 c-11 154 -20 292 -20 307 0 18 46 91 146 230 80 112
153 212 163 222 9 9 125 61 258 115 l242 97 429 506 430 505 397 140 398 139
217 315 c145 210 224 316 237 318 10 2 151 -29 313 -68 161 -39 295 -69 297
-66 2 2 15 70 29 152 25 149 25 149 68 194 23 25 102 109 175 188 123 131 160
159 175 133 3 -5 17 -134 31 -287 14 -152 27 -279 29 -281 2 -3 116 14 252 36
136 22 251 38 256 35 5 -3 34 -55 64 -116 l56 -111 46 45 c138 133 1632 1537
1660 1560 34 28 56 28 67 0z"/>
<path d="M6013 5622 l-131 -127 -12 -83 c-6 -46 -10 -86 -7 -88 2 -2 60 80
129 183 157 237 161 243 157 243 -2 -1 -63 -58 -136 -128z"/>
<path d="M5493 5132 c-133 -125 -240 -228 -239 -229 2 -2 103 41 227 95 l224
97 17 130 c9 71 16 131 15 132 -1 1 -111 -100 -244 -225z"/>
<path d="M4110 5223 c-133 -141 -116 -106 -155 -329 -19 -109 -45 -248 -59
-309 -13 -60 -21 -113 -18 -117 4 -4 54 -24 112 -46 l105 -40 58 57 59 56 -6
185 c-7 212 -36 590 -46 590 -3 0 -26 -21 -50 -47z"/>
<path d="M5297 4781 c-158 -70 -289 -130 -292 -133 -6 -5 54 -467 64 -492 6
-15 58 56 257 355 260 388 267 399 262 399 -2 0 -132 -58 -291 -129z"/>
<path d="M4448 4837 l-118 -20 0 -105 0 -104 43 38 c125 111 226 214 210 213
-10 -1 -71 -10 -135 -22z"/>
<path d="M4565 4649 c-115 -109 -211 -202 -213 -207 -2 -8 276 -177 282 -171
2 2 53 97 114 211 l111 207 -37 81 c-20 44 -39 80 -42 79 -3 0 -99 -90 -215
-200z"/>
<path d="M3040 4548 l-193 -280 -69 -182 c-39 -99 -76 -198 -84 -219 l-14 -39
33 19 c17 10 247 142 510 293 262 151 477 277 477 280 0 5 -319 285 -436 383
l-30 26 -194 -281z"/>
<path d="M3481 4786 c59 -57 272 -236 276 -232 3 2 13 41 22 85 16 73 16 81 2
85 -9 3 -56 14 -106 26 -49 12 -117 27 -149 35 -49 12 -57 12 -45 1z"/>
<path d="M4851 4405 c-24 -44 -59 -108 -78 -142 l-34 -61 92 -57 c120 -74 119
-74 113 -33 -3 18 -16 110 -28 203 l-22 170 -43 -80z"/>
<path d="M3311 4052 l-503 -297 68 -6 c38 -4 326 -7 639 -8 l571 -1 144 49
c80 27 153 52 162 56 20 8 184 308 172 313 -5 1 -79 45 -164 97 l-155 93 -57
-54 -56 -54 -114 41 c-62 23 -130 47 -152 55 -21 8 -41 14 -45 13 -3 0 -233
-134 -510 -297z"/>
<path d="M2535 4141 c-71 -26 -192 -69 -268 -95 l-137 -48 192 -109 c106 -60
195 -109 198 -109 5 0 53 122 157 398 7 17 4 16 -142 -37z"/>
<path d="M4627 3990 c-27 -50 -44 -90 -40 -90 11 0 266 70 270 74 4 4 -166
106 -175 106 -4 0 -29 -41 -55 -90z"/>
<path d="M2060 3884 c0 -3 -29 -186 -65 -407 -36 -220 -64 -405 -62 -410 3
-10 512 580 512 595 0 10 -360 227 -377 228 -5 0 -8 -3 -8 -6z"/>
<path d="M4752 3810 c-118 -32 -215 -60 -218 -62 -5 -6 45 -191 54 -200 10 -9
554 -159 560 -153 9 9 -156 470 -169 472 -8 1 -110 -25 -227 -57z"/>
<path d="M1582 3435 c-177 -209 -322 -382 -322 -385 0 -7 521 -53 527 -46 6 6
124 789 120 800 -2 5 -148 -161 -325 -369z"/>
<path d="M4336 3688 l-58 -20 68 -29 c77 -33 84 -34 84 -16 0 23 -21 87 -28
86 -4 0 -33 -10 -66 -21z"/>
<path d="M2608 3614 c-3 -5 -54 -212 -113 -461 l-108 -452 49 -75 c27 -42 52
-76 56 -76 4 0 174 131 379 290 204 160 381 292 393 294 11 3 228 12 481 21
253 9 475 18 492 21 l33 5 -108 214 -107 215 -415 0 c-228 0 -553 3 -721 7
-180 3 -308 2 -311 -3z"/>
<path d="M4429 3143 c110 -219 206 -406 213 -416 13 -18 27 -16 328 38 173 30
325 59 336 63 22 7 21 10 -39 207 -33 110 -61 201 -61 202 -1 1 -159 45 -351
98 -247 68 -388 112 -478 151 -71 30 -133 54 -138 54 -5 0 80 -179 190 -397z"/>
<path d="M2137 3098 c-273 -317 -306 -351 -687 -712 -220 -209 -399 -380 -397
-382 2 -1 745 17 1136 28 l94 3 73 180 c41 99 74 183 74 186 0 3 -38 66 -85
138 -47 73 -85 142 -85 154 0 12 38 182 85 377 46 195 83 356 81 357 -2 2
-132 -146 -289 -329z"/>
<path d="M5392 3064 c21 -86 175 -584 181 -584 8 0 267 179 267 185 0 2 -80
76 -177 166 -98 89 -200 183 -227 208 -37 35 -47 41 -44 25z"/>
<path d="M4135 3049 c-99 -5 -331 -15 -515 -22 l-335 -14 -363 -281 c-200
-154 -363 -283 -363 -287 -1 -3 63 -104 142 -225 l142 -219 329 -276 c181
-152 334 -278 341 -281 9 -3 36 120 100 458 48 254 92 467 98 474 6 7 106 64
222 127 l212 115 187 32 187 33 -95 188 c-52 104 -97 188 -102 187 -4 0 -88
-5 -187 -9z"/>
<path d="M1200 2919 c0 -2 -38 -170 -84 -374 -46 -203 -83 -371 -82 -372 3 -3
720 677 724 686 1 4 -104 18 -235 30 -131 12 -257 25 -280 28 -24 3 -43 4 -43
2z"/>
<path d="M870 2834 l-185 -74 -119 -166 c-68 -95 -115 -169 -110 -174 5 -4
106 -65 224 -134 185 -108 216 -123 222 -108 4 9 39 161 78 337 39 176 75 337
80 358 4 20 5 37 1 37 -3 -1 -89 -35 -191 -76z"/>
<path d="M4840 2611 c-261 -48 -481 -90 -489 -92 -8 -3 62 -54 158 -117 l171
-111 191 -60 191 -60 203 99 203 98 -34 113 c-19 63 -42 138 -50 167 -14 47
-18 52 -42 51 -15 -1 -241 -41 -502 -88z"/>
<path d="M5852 2514 c-29 -20 -52 -40 -52 -45 0 -9 163 -159 168 -154 5 5 -49
218 -58 227 -3 5 -29 -8 -58 -28z"/>
<path d="M5766 2298 c-5 -16 -46 -391 -43 -394 1 -1 51 15 112 35 107 37 110
39 144 90 l35 52 -75 75 c-106 108 -168 159 -173 142z"/>
<path d="M426 2248 c2 -18 9 -105 14 -193 6 -87 12 -161 14 -162 2 -2 77 6
167 19 l164 22 43 40 c34 32 40 42 30 51 -19 18 -418 255 -428 255 -5 0 -7
-15 -4 -32z"/>
<path d="M2207 1513 c-169 -416 -306 -758 -304 -759 3 -4 1461 511 1529 539
l29 12 -354 300 -354 300 -118 183 c-65 100 -118 182 -119 182 -1 0 -140 -340
-309 -757z"/>
<path d="M5337 2164 c-123 -62 -166 -88 -159 -97 5 -7 35 -46 67 -87 31 -41
67 -78 80 -81 12 -4 77 -10 143 -14 l121 -7 5 33 c3 19 10 79 16 134 6 55 13
114 15 130 5 28 1 33 -40 53 -25 12 -53 22 -63 21 -9 0 -93 -38 -185 -85z"/>
<path d="M1359 1886 l-446 -11 -220 -215 c-120 -118 -220 -219 -222 -225 -2
-5 48 -38 110 -74 63 -35 350 -199 639 -362 l524 -298 28 67 c14 37 123 307
242 600 l215 532 -212 -2 c-117 -1 -413 -6 -658 -12z"/>
<path d="M513 1767 l-62 -10 -6 -56 c-3 -31 -8 -69 -10 -85 -4 -25 5 -19 95
64 55 51 100 94 100 96 0 6 -48 2 -117 -9z"/>
<path d="M2740 914 c-322 -112 -594 -209 -605 -214 -13 -6 120 -8 390 -4 l410
5 108 112 c121 124 291 307 286 306 -2 0 -267 -92 -589 -205z"/>
</g>
</svg>
