<svg version="1.2" xmlns="http://www.w3.org/2000/svg" viewBox="0 0 101 103" width="101" height="103">
	<title>image</title>
	<defs>
		<clipPath clipPathUnits="userSpaceOnUse" id="cp1">
			<path d="m100.05 38.52l-44.73-38.07-54.44 63.95 44.72 38.07z"/>
		</clipPath>
		<linearGradient id="g1" x2="1" gradientUnits="userSpaceOnUse" gradientTransform="matrix(-54.448,63.95,-44.721,-38.076,77.686,19.491)">
			<stop offset="0" stop-color="#10d4fd"/>
			<stop offset="1" stop-color="#ea72f1"/>
		</linearGradient>
	</defs>
	<style>
		.s0 { fill: url(#g1) } 
	</style>
	<g id="Clip-Path" clip-path="url(#cp1)">
		<g id="Layer">
			<path id="Layer" class="s0" d="m23.7 47c-2.6 15.9 4.6 35.6 18.8 44.1q-0.8-0.3-1.6-0.6c-2.7-1.1-4.7-3.3-7.7-3.3-2 0-2.7 3.2-0.7 3.9 3.3 1.2 6.1 3.3 9.7 4q5 1.1 9.9-0.5 0.4-0.2 0.6-0.4c0.4-0.4 0.6-1.1 0.4-1.9-0.8-2.9-2.7-5.5-4.2-8.1-1.3-2-2.4-5.4-5.1-5.6-0.8 0-1.4 0.4-1.6 1.1-0.8 2.5 1.6 4.5 2.8 6.5q0.6 1 1.2 2c-11.8-10.2-20.5-23.9-18.1-40.4 2.6-18.8 19.4-33.8 38.1-35.8 1.3-0.1 1.1-2.1-0.2-2.1-20.5 0.8-39 16.7-42.3 37.1z"/>
		</g>
	</g>
</svg>