<svg version="1.2" xmlns="http://www.w3.org/2000/svg" viewBox="0 0 89 120" width="89" height="120">
	<title>image</title>
	<defs>
		<clipPath clipPathUnits="userSpaceOnUse" id="cp1">
			<path d="m25.47 119.56l-25.47-104.22 62.75-15.34 25.47 104.23z"/>
		</clipPath>
		<linearGradient id="g1" x2="1" gradientUnits="userSpaceOnUse" gradientTransform="matrix(62.755,-15.336,25.47,104.226,12.75,67.451)">
			<stop offset="0" stop-color="#10d3fd"/>
			<stop offset="1" stop-color="#e873f0"/>
		</linearGradient>
	</defs>
	<style>
		.s0 { fill: url(#g1) } 
	</style>
	<g id="Clip-Path" clip-path="url(#cp1)">
		<g id="Layer">
			<path id="Layer" class="s0" d="m62.5 2.5c-15.3 10.7-26.6 31.2-27.9 49.8-1.3 19.1 6.5 36 18.6 50-0.3-0.9-0.6-1.9-0.9-2.7-1.9-4.8-4.4-9.4-6.2-14.2-1.1-3.1 3.6-4.6 5.2-2.1 2.6 4.4 4.4 9.5 6.1 14.3 1.4 3.9 4.3 8.9 2.5 13-0.2 0.4-0.6 0.7-1 0.8q-0.4 0.1-0.8 0.1c-7.2-0.4-14.7-3-21.7-4.8-5.2-1.4-11.2-2.1-15.1-6.2-3.1-3.2 2-8.1 5.1-4.8 3.7 3.9 11.5 4.6 16.5 6.2q1.8 0.6 3.8 1.2c-13.7-13-20.7-33.2-19-51.9 0.9-10.6 4.4-21.2 10.2-30.2 5.9-9.2 14.1-15.2 23.5-20.6 1.3-0.8 2.4 1.2 1.1 2.1z"/>
		</g>
	</g>
</svg>