<svg version="1.2" xmlns="http://www.w3.org/2000/svg" viewBox="0 0 81 88" width="81" height="88">
	<title>image</title>
	<defs>
		<clipPath clipPathUnits="userSpaceOnUse" id="cp1">
			<path d="m80.34 25.77l-35.71 61.85-44.63-25.77 35.71-61.85z"/>
		</clipPath>
		<linearGradient id="g1" x2="1" gradientUnits="userSpaceOnUse" gradientTransform="matrix(-44.63,-25.767,35.711,-61.853,62.486,56.693)">
			<stop offset="0" stop-color="#0fd4fd"/>
			<stop offset="1" stop-color="#e773f0"/>
		</linearGradient>
	</defs>
	<style>
		.s0 { fill: url(#g1) } 
	</style>
	<g id="Clip-Path" clip-path="url(#cp1)">
		<g id="Layer">
			<path id="Layer" class="s0" d="m36.8 82.2c-1.2-5-1.2-10.4-1.7-15.5-0.4-4.8-0.3-10.3-2.2-14.8-0.5-1.1 0.1-2.3 1.3-2.3 4.8-0.3 5.9 4.3 6.2 8.2 0.4 4.4 1 9 1.3 13.6q0.4-0.8 0.8-1.7 1.7-4.4 2.8-9.1c1.6-6.4 2.3-13 2.1-19.6-0.1-6.9-1.2-13.8-3.3-20.4-2.1-6.6-5.6-11.7-9.2-17.5-0.9-1.5 0.8-3.1 2.2-2.3 6.1 3.4 9.1 10.7 11.4 17 2.5 6.9 3.9 14.2 4.3 21.6 0.4 7.3-0.3 14.7-2 21.9-0.5 2.4-1.3 6.5-2.6 10.1 3.2-3.1 6.2-6.4 9.2-9.9 0.7-0.9 2 0.3 1.5 1.2-4.1 8.4-10.6 15-17.9 20.7-1.4 1.1-3.7 0.8-4.2-1.2z"/>
		</g>
	</g>
</svg>